{
  "accessors": [
    {
      "bufferView": 1,
      "componentType": 5126,
      "count": 13292,
      "max": [
        94.462051391601562,
        -0,
        74.147720336914062
      ],
      "min": [
        50.747573852539062,
        -99.5523681640625,
        39.5321044921875
      ],
      "type": "VEC3"
    },
    {
      "bufferView": 1,
      "byteOffset": 159504,
      "componentType": 5126,
      "count": 13292,
      "max": [
        0.99988585710525513,
        1,
        0.9999728798866272
      ],
      "min": [
        -0.99999463558197021,
        -1,
        -0.99983233213424683
      ],
      "type": "VEC3"
    },
    {
      "bufferView": 2,
      "componentType": 5126,
      "count": 13292,
      "max": [
        0.24313725531101227,
        0.27843138575553894,
        0.79607844352722168,
        1
      ],
      "min": [
        0.24313725531101227,
        0.27843138575553894,
        0.79607844352722168,
        1
      ],
      "type": "VEC4"
    },
    {
      "bufferView": 0,
      "componentType": 5125,
      "count": 77076,
      "max": [
        13291
      ],
      "min": [
        0
      ],
      "type": "SCALAR"
    }
  ],
  "asset": {
    "extras": {
      "author": "adv51 (https://sketchfab.com/adv51)",
      "license": "CC-BY-4.0 (http://creativecommons.org/licenses/by/4.0/)",
      "source": "https://sketchfab.com/3d-models/another-blue-venus-3912ccd2809942dfb04e7867fa577262",
      "title": "Another Blue Venus"
    },
    "generator": "Sketchfab-8.59.0",
    "version": "2.0"
  },
  "bufferViews": [
    {
      "buffer": 0,
      "byteLength": 308304,
      "byteOffset": 0,
      "name": "floatBufferViews",
      "target": 34963
    },
    {
      "buffer": 0,
      "byteLength": 319008,
      "byteOffset": 308304,
      "byteStride": 12,
      "name": "floatBufferViews",
      "target": 34962
    },
    {
      "buffer": 0,
      "byteLength": 212672,
      "byteOffset": 627312,
      "byteStride": 16,
      "name": "floatBufferViews",
      "target": 34962
    }
  ],
  "buffers": [
    {
      "byteLength": 839984,
      "uri": "scene.bin"
    }
  ],
  "materials": [
    {
      "doubleSided": true,
      "name": "material_0",
      "pbrMetallicRoughness": {
        "baseColorFactor": [
          1,
          1,
          1,
          1
        ],
        "metallicFactor": 0,
        "roughnessFactor": 0.59999999999999998
      }
    }
  ],
  "meshes": [
    {
      "primitives": [
        {
          "attributes": {
            "COLOR_0": 2,
            "NORMAL": 1,
            "POSITION": 0
          },
          "indices": 3,
          "material": 0,
          "mode": 4
        }
      ]
    }
  ],
  "nodes": [
    {
      "children": [
        1
      ],
      "name": "RootNode (gltf orientation matrix)",
      "rotation": [
        -0.70710678118654746,
        -0,
        -0,
        0.70710678118654757
      ]
    },
    {
      "children": [
        2
      ],
      "matrix": [
        1,
        1.6081226229577292e-16,
        -2.2204460492503131e-16,
        0,
        -2.2204460492503131e-16,
        4.4408920985006262e-16,
        -1,
        0,
        -1.6081226229577292e-16,
        1,
        4.4408920985006262e-16,
        0,
        0,
        -106.61617279052734,
        7.0637426376342773,
        1
      ],
      "name": "RootNode (model correction matrix)"
    },
    {
      "children": [
        3
      ],
      "name": "blvenusfinal.obj.cleaner.materialmerger.gles"
    },
    {
      "mesh": 0,
      "name": ""
    }
  ],
  "scene": 0,
  "scenes": [
    {
      "name": "OSG_Scene",
      "nodes": [
        0
      ]
    }
  ]
}

